<svg version="1.1" viewBox="0.0 0.0 960.0 720.0" fill="none" stroke="none" stroke-linecap="square" stroke-miterlimit="10" xmlns:xlink="http://www.w3.org/1999/xlink" xmlns="http://www.w3.org/2000/svg"><clipPath id="p.0"><path d="m0 0l960.0 0l0 720.0l-960.0 0l0 -720.0z" clip-rule="nonzero"/></clipPath><g clip-path="url(#p.0)"><path fill="#000000" fill-opacity="0.0" d="m0 0l960.0 0l0 720.0l-960.0 0z" fill-rule="evenodd"/><path fill="#3d85c6" d="m305.21783 360.49606l0 0c0 -97.523926 82.34436 -176.58267 183.92126 -176.58267l0 0c48.77893 0 95.56006 18.604187 130.052 51.719864c34.491882 33.115677 53.869263 78.03017 53.869263 124.86281l0 0c0 97.523926 -82.34436 176.58267 -183.92126 176.58267l0 0c-101.576904 0 -183.92126 -79.05875 -183.92126 -176.58267z" fill-rule="evenodd"/><path stroke="#3d85c6" stroke-width="1.0" stroke-linejoin="round" stroke-linecap="butt" d="m305.21783 360.49606l0 0c0 -97.523926 82.34436 -176.58267 183.92126 -176.58267l0 0c48.77893 0 95.56006 18.604187 130.052 51.719864c34.491882 33.115677 53.869263 78.03017 53.869263 124.86281l0 0c0 97.523926 -82.34436 176.58267 -183.92126 176.58267l0 0c-101.576904 0 -183.92126 -79.05875 -183.92126 -176.58267z" fill-rule="evenodd"/><path fill="#000000" fill-opacity="0.0" d="m373.21783 272.74014l231.84253 0l0 174.51971l-231.84253 0z" fill-rule="evenodd"/><path fill="#ffffff" d="m419.29535 404.62015l0 -91.625l12.125 0l0 91.625l-12.125 0zm35.5625 0l0 -91.625l12.125 0l0 91.625l-12.125 0zm98.875 -32.125l12.125 3.0625q-3.8125 14.9375 -13.71875 22.78125q-9.90625 7.84375 -24.21875 7.84375q-14.8125 0 -24.09375 -6.03125q-9.28125 -6.03125 -14.125 -17.46875q-4.84375 -11.4375 -4.84375 -24.5625q0 -14.3125 5.46875 -24.96875q5.46875 -10.65625 15.5625 -16.1875q10.09375 -5.53125 22.21875 -5.53125q13.75 0 23.125 7.0q9.375 7.0 13.0625 19.6875l-11.9375 2.8125q-3.1875 -10.0 -9.25 -14.5625q-6.0625 -4.5625 -15.25 -4.5625q-10.5625 0 -17.65625 5.0625q-7.09375 5.0625 -9.96875 13.59375q-2.875 8.53125 -2.875 17.59375q0 11.6875 3.40625 20.40625q3.40625 8.71875 10.59375 13.03125q7.1875 4.3125 15.5625 4.3125q10.1875 0 17.25 -5.875q7.0625 -5.875 9.5625 -17.4375z" fill-rule="nonzero"/></g></svg>